<?xml version="1.0" encoding="utf-8"?>
<!-- Generator: Adobe Illustrator 25.4.1, SVG Export Plug-In . SVG Version: 6.00 Build 0)  -->
<svg version="1.1" id="Layer_1" xmlns="http://www.w3.org/2000/svg" xmlns:xlink="http://www.w3.org/1999/xlink" x="0px" y="0px"
	 viewBox="0 0 841.89 398" style="enable-background:new 0 0 841.89 398;" xml:space="preserve">
<style type="text/css">
	.st0{fill:#FFFFFF;}
</style>
<path class="st0" d="M419.45,106.82v200.92h18.42V111.7c49.64,12.62,95.07,18.92,136.05,18.92c49.43,0,92.38-9.14,128.53-27.45
	c53.03-26.84,70.36-63.81,71.08-65.38l-16.75-7.62c-0.14,0.3-15.32,32.62-62.64,56.58c-81.27,41.16-190.68,24.23-268.13,2.78
	C144.54,11.63,71.41,47.78,68.42,49.36l8.52,16.34C77.63,65.34,149.62,32.35,419.45,106.82"/>
<path class="st0" d="M121.65,118.03c2.76-0.06,5.55-0.08,8.37-0.08h1.03c53.59,0,93.32,9.53,114.91,27.61
	c13.22,11.05,19.73,25.16,19.91,43.08c0.19,21.79-7.02,40.24-21.49,54.86c-39.25,39.64-118.86,40.16-119.66,40.16v0.02
	c-1.02-0.06-2.06-0.08-3.07-0.12V118.03z M776.81,271.3c-0.25,0.37-25.27,35.91-83.65,61.51c-98.1,43.04-213.43,25.58-292.9,3.36
	c-86.73-24.27-153.28-37.99-203.97-45.35c25.8-7.87,46.31-19.37,61.12-34.35c18.06-18.21,27.11-41.09,26.86-68
	c-0.23-23.31-9.14-42.51-26.51-57.03c-59.85-50.1-202.19-26.62-208.23-25.61l3.07,18.15c0.28-0.04,21.58-3.61,50.62-5.23v164.5
	c-40.51,0.24-54.99,6.89-56.24,7.5l8.16,16.51c0.28-0.15,12.96-5.36,48.08-5.54v65.46h18.41v-65.14
	C172.56,304.04,258,315.5,395.3,353.9c45.22,12.63,101.61,23.74,160.33,23.74c48.85,0,99.28-7.69,146.21-28.53
	c62.66-27.85,89.06-65.79,90.16-67.41L776.81,271.3z"/>
<rect x="328.25" y="148.34" class="st0" width="18.41" height="132.27"/>
<path class="st0" d="M510.3,175.87l-9.07-1.58c-0.56,3.2-13.16,78.42,19.76,117.53c12.83,15.23,30.56,22.97,52.71,22.97
	c22.54,0,40.28-7.78,52.72-23.13c31.09-38.36,16.25-110.7,15.6-113.76l-18.01,3.81c0.14,0.65,13.68,66.85-11.91,98.37
	c-8.9,10.97-21.46,16.3-38.4,16.3c-16.68,0-29.32-5.38-38.6-16.39c-27.42-32.54-15.86-101.86-15.74-102.56L510.3,175.87z"/>
</svg>
